<svg xmlns="http://www.w3.org/2000/svg" xmlns:xlink="http://www.w3.org/1999/xlink" width="1024" height="886.6" viewBox="0 0 1774 1536"><path id="t" fill="#13d" d="M 0 1 L .8660254 -.5 -.8660254 -.5 Z"/><g id="d1"><use transform="matrix(0.5, 0, 0, 0.5, 0, 0.5)" xlink:href="#t"/><use transform="matrix(0.5, 0, 0, 0.5, 0.433013, -0.25)" xlink:href="#t"/><use transform="matrix(0.5, 0, 0, 0.5, -0.433013, -0.25)" xlink:href="#t"/></g><g id="d2"><use transform="matrix(0.5, 0, 0, 0.5, 0, 0.5)" xlink:href="#d1"/><use transform="matrix(0.5, 0, 0, 0.5, 0.433013, -0.25)" xlink:href="#d1"/><use transform="matrix(0.5, 0, 0, 0.5, -0.433013, -0.25)" xlink:href="#d1"/></g><g id="d3"><use transform="matrix(0.5, 0, 0, 0.5, 0, 0.5)" xlink:href="#d2"/><use transform="matrix(0.5, 0, 0, 0.5, 0.433013, -0.25)" xlink:href="#d2"/><use transform="matrix(0.5, 0, 0, 0.5, -0.433013, -0.25)" xlink:href="#d2"/></g><g id="d4"><use transform="matrix(0.5, 0, 0, 0.5, 0, 0.5)" xlink:href="#d3"/><use transform="matrix(0.5, 0, 0, 0.5, 0.433013, -0.25)" xlink:href="#d3"/><use transform="matrix(0.5, 0, 0, 0.5, -0.433013, -0.25)" xlink:href="#d3"/></g><g id="d5"><use transform="matrix(0.5, 0, 0, 0.5, 0, 0.5)" xlink:href="#d4"/><use transform="matrix(0.5, 0, 0, 0.5, 0.433013, -0.25)" xlink:href="#d4"/><use transform="matrix(0.5, 0, 0, 0.5, -0.433013, -0.25)" xlink:href="#d4"/></g><g id="d6"><use transform="matrix(0.5, 0, 0, 0.5, 0, 0.5)" xlink:href="#d5"/><use transform="matrix(0.5, 0, 0, 0.5, 0.433013, -0.25)" xlink:href="#d5"/><use transform="matrix(0.5, 0, 0, 0.5, -0.433013, -0.25)" xlink:href="#d5"/></g><g id="d7"><use transform="matrix(.5 0 0 .5 0 .5)" xlink:href="#d6"/><use transform="matrix(.5 0 0 .5 .43301270 -.25)" xlink:href="#d6"/><use transform="matrix(.5 0 0 .5 -.43301270 -.25)" xlink:href="#d6"/></g><g id="d8"><use transform="matrix(.5 0 0 .5 0 .5)" xlink:href="#d7"/><use transform="matrix(.5 0 0 .5 .43301270 -.25)" xlink:href="#d7"/><use transform="matrix(.5 0 0 .5 -.43301270 -.25)" xlink:href="#d7"/></g><g transform="matrix(1024, 0, 0, -1024, 886.81, 1024)"><use xlink:href="#d8"/></g></svg>